<?xml version="1.0" encoding="utf-8"?>
<!DOCTYPE svg PUBLIC "-//W3C//DTD SVG 1.0//EN" "http://www.w3.org/TR/2001/REC-SVG-20010904/DTD/svg10.dtd">
<svg version="1.0" xmlns="http://www.w3.org/2000/svg" width="128px" height="128px" viewBox="0 0 128 128" preserveAspectRatio="xMidYMid meet">
 <g fill="#ffc5d2">
  <path d="M16.6 110.8 c-3.8 -3.8 -5.1 -9.1 -3.7 -14.6 1.4 -5.1 6.5 -10.2 10.2 -10.2 2.5 0 2.9 0.4 2.9 2.9 0 2.4 -0.5 3 -3 3.4 -7.1 1.5 -9.2 12.8 -3.4 18.8 3.8 4 1 3.7 -3 -0.3z"/>
  <path d="M108.4 111.1 c5.8 -6 3.7 -17.3 -3.4 -18.8 -2.5 -0.4 -3 -1 -3 -3.4 0 -2.5 0.4 -2.9 2.9 -2.9 3.7 0 8.8 5.1 10.2 10.2 1.4 5.5 0.1 10.8 -3.7 14.6 -4 4 -6.8 4.3 -3 0.3z"/>
  <path d="M68 108.3 c0.1 -4.4 2.7 -11.8 4.3 -12.1 1.4 -0.3 1.7 0.4 1.7 3.6 0 5.7 -1.8 10.2 -4.1 10.2 -1.2 0 -1.9 -0.7 -1.9 -1.7z"/>
  <path d="M55 107.1 c-1.6 -3.1 -1.3 -12.1 0.5 -12.1 1.3 0 2.6 3.3 4.1 10.8 0.6 2.8 0.4 3.2 -1.4 3.2 -1.2 0 -2.6 -0.9 -3.2 -1.9z"/>
  <path d="M14.3 79.5 c-7 -4.2 -11 -13.3 -9.3 -20.8 0.6 -2.4 0.8 -2.6 0.9 -0.9 0.2 4 4 10.2 8.1 13 2.7 1.9 4.1 3.7 4.6 5.9 1 5 0.2 5.5 -4.3 2.8z"/>
  <path d="M108.1 78.3 c0 -3.4 0.5 -4.1 4.7 -6.8 4.8 -3.1 8 -7.5 9.2 -12.8 0.7 -2.7 0.8 -2.2 0.9 2.7 0.1 8.1 -2.7 13.9 -8.7 17.7 -2.5 1.6 -5 2.9 -5.4 2.9 -0.4 0 -0.8 -1.7 -0.7 -3.7z"/>
  <path d="M47.4 49.6 c-0.3 -0.8 -0.4 -2.7 -0.2 -4.3 0.3 -2.4 0.8 -2.8 4.1 -3.1 l3.7 -0.3 0 4.5 c0 4.6 0 4.6 -3.5 4.6 -2.2 0 -3.8 -0.6 -4.1 -1.4z"/>
  <path d="M70.2 46.3 c0.3 -3.6 0.5 -3.8 4.1 -4.1 l3.7 -0.3 0 4 0 4.1 -4.1 0 -4 0 0.3 -3.7z"/>
  <path d="M100.7 48.3 c-0.4 -0.3 -0.7 -1.9 -0.7 -3.5 0 -2.3 0.4 -2.8 2.5 -2.8 2.4 0 4.5 2.5 4.5 5.4 0 1.6 -4.9 2.3 -6.3 0.9z"/>
  <path d="M21 47 c0 -2.8 2.5 -6 4.7 -6 2 0 2.3 0.5 2.3 3.5 0 3.3 -0.2 3.5 -3.5 3.5 -1.9 0 -3.5 -0.4 -3.5 -1z"/>
 </g>
 <g fill="#fbb5c4">
  <path d="M54.3 117.3 c-0.8 -0.3 -1.1 -1.8 -0.7 -4.7 0.5 -3.2 0.1 -5.3 -1.5 -8.4 -2.7 -5.2 -3 -16.6 -0.5 -17.6 3.8 -1.4 5 -0.7 5.1 3.2 0.3 10.8 0.5 12.9 1.9 14.9 1.7 2.7 1.8 7.3 0.2 10.8 -1.1 2.4 -2.1 2.8 -4.5 1.8z"/>
  <path d="M69.2 115.5 c-1.5 -3.3 -1.5 -7 -0.1 -9.7 1.2 -2.2 2.2 -9.4 2.3 -16 0 -3.2 0.3 -3.8 2.1 -3.8 1.2 0 2.9 0.6 4 1.4 1.5 1.1 1.7 2.1 1.1 7 -0.3 3.2 -1.6 7.6 -2.7 9.8 -1.7 3.3 -2 5.2 -1.5 9 0.6 4.6 0.6 4.8 -1.7 4.8 -1.6 0 -2.8 -0.9 -3.5 -2.5z"/>
  <path d="M17 111.3 c-2.9 -2.7 -5.8 -9.3 -4 -9.3 0.5 0 1.1 1.2 1.5 2.8 0.7 3.2 2.2 5.2 5.5 7.5 1.3 0.9 1.9 1.7 1.2 1.7 -0.6 0 -2.5 -1.2 -4.2 -2.7z"/>
  <path d="M108.2 112.3 c7.7 -4.8 6.9 -17.9 -1.3 -22.3 -1.5 -0.9 -1.7 -0.8 -1.2 0.6 0.5 1.5 0.2 1.6 -2.7 1.1 -1.8 -0.4 -5 -0.7 -7.1 -0.7 -3.8 0 -3.9 -0.1 -3.9 -3.5 0 -2.4 0.5 -3.5 1.5 -3.5 1 0 1.5 -1.1 1.5 -3.5 0 -3.3 0.2 -3.5 3.3 -3.5 1.7 0 5.2 -0.9 7.6 -2 2.4 -1.1 5.4 -2 6.7 -2 1.4 0 2.4 -0.6 2.4 -1.4 0 -0.7 0.7 -1.9 1.6 -2.7 0.8 -0.7 2.4 -2.9 3.4 -4.8 1.2 -2.3 1.9 -2.9 2 -1.8 0 2.9 -3.6 9.2 -7.3 12.4 -2 1.7 -3.7 3.9 -3.9 4.9 -0.2 1.3 -1.8 2.3 -4.8 3 l-4.5 1.1 3.5 1.5 c4.7 2 9.6 7.7 10.4 12.2 1 5.1 -0.9 11 -4.5 14 -1.7 1.4 -3.6 2.6 -4.2 2.6 -0.7 0 0 -0.8 1.5 -1.7z"/>
  <path d="M13 96.1 c1.3 -4.7 4.1 -7.9 8.9 -10.2 l4.4 -2.2 -4.8 -1.2 c-4.5 -1.2 -6.5 -2.7 -6.5 -5.1 0 -0.6 -1.2 -2.1 -2.6 -3.5 -3 -2.8 -6.4 -9 -6.4 -11.6 0.1 -1.1 0.8 -0.5 2 1.8 1 1.9 2.6 4.1 3.4 4.8 0.9 0.8 1.6 2 1.6 2.7 0 0.8 1.1 1.4 2.5 1.4 1.5 0 4 0.7 5.6 1.6 1.7 0.8 4.9 1.8 7.2 2.2 3.8 0.7 4.2 1 4.5 4 0.2 2 0.9 3.2 1.8 3.2 0.9 0 1.4 1.1 1.4 3.5 0 3.4 -0.1 3.5 -3.9 3.5 -2.1 0 -5.3 0.3 -7.1 0.7 -2.9 0.5 -3.3 0.4 -2.6 -1.2 0.6 -1.6 0.5 -1.7 -1.6 -0.3 -1.3 0.8 -3.3 3 -4.6 4.9 -3 4.4 -4.3 4.8 -3.2 1z"/>
  <path d="M19.7 56.2 c-0.7 -3.6 0.4 -8.6 3.1 -13.7 2.6 -5.1 7.6 -10.5 9.6 -10.5 2.4 0 1.9 3.8 -0.9 7.2 -2.6 3.1 -4.1 7.5 -5.1 15.2 -0.6 4.2 -0.9 4.6 -3.4 4.6 -2.2 0 -2.9 -0.6 -3.3 -2.8z"/>
  <path d="M101.1 51.9 c-1.2 -7.4 -2.9 -11.7 -5.5 -13.8 -2 -1.7 -2.1 -6.1 -0.2 -6.1 0.8 0 2.9 1.5 4.6 3.3 5.8 6 9.4 15.2 8.3 20.9 -0.4 2.2 -1.1 2.8 -3.3 2.8 -2.6 0 -2.8 -0.3 -3.9 -7.1z"/>
  <path d="M71 47.5 c0 -3.3 0.2 -3.5 3.5 -3.5 3.3 0 3.5 0.2 3.5 3.5 0 3.3 -0.2 3.5 -3.5 3.5 -3.3 0 -3.5 -0.2 -3.5 -3.5z"/>
 </g>
 <g fill="#eb8fa3">
  <path d="M43.4 122.8 c-3.9 -1 -6.2 -3.5 -7 -7.6 -0.7 -3.6 1 -4.5 2.1 -1.2 0.7 2.3 5.3 5 8.5 5 3.2 0 7 -4.4 7 -8 0 -1.7 -1.1 -5.3 -2.5 -8 -1.4 -2.7 -2.5 -6.1 -2.5 -7.5 0 -4.5 -2 -5.5 -9.4 -4.8 -6.3 0.6 -6.6 0.5 -6.6 -1.6 0 -1.5 -0.6 -2.1 -2.2 -2.1 -7.4 0 -15 5.2 -16.3 11 -0.4 1.6 -1.1 3 -1.7 3 -1.5 0 0.1 -6 2.5 -9.8 1.3 -1.9 3.3 -3.5 5 -3.9 1.5 -0.3 2.7 -0.9 2.7 -1.3 0 -0.4 1.6 -1.5 3.5 -2.4 4 -1.9 3.8 -3.6 -0.4 -3.6 -7.5 0 -18.1 -8.9 -19.6 -16.5 -0.6 -2.9 -0.5 -2.9 1.4 0.7 1.2 2 3.8 5 5.8 6.5 2.1 1.5 4 3.1 4.3 3.4 0.3 0.3 2.1 0.8 4 1.2 1.9 0.3 4.2 0.8 5 1.1 0.8 0.3 2.3 -0.1 3.4 -0.9 1.8 -1.3 1.6 -1.6 -2.7 -5.8 -5 -4.9 -7.1 -8.4 -8.1 -13.6 -0.6 -3.3 -0.5 -3.4 1.3 -1.7 1.8 1.6 1.9 1.5 2.5 -3.2 0.4 -2.8 2.1 -7.2 4 -10.5 2.4 -3.9 3 -5.7 2.1 -5.7 -0.8 0 0.6 -2 3 -4.5 2.5 -2.4 4.5 -5.1 4.5 -5.9 0 -1.8 -2.3 -3.7 -4.9 -3.9 -3.3 -0.2 -1.2 -1.7 2.4 -1.7 2.6 0 3.9 0.6 5.1 2.4 1.4 2.3 1.4 2.8 -0.4 6.8 -1 2.4 -3.7 6.4 -6 9.1 -6.9 7.9 -8 17.4 -2.7 24.2 3.6 4.9 5.6 5.7 14.1 5.6 l7.4 0 0 4.7 c0 2.7 -0.7 5.7 -1.5 6.8 -0.8 1 -1.4 2.8 -1.4 3.9 0 1.4 0.4 1 1.4 -1.3 1.8 -4 6.5 -6.2 13.5 -6.2 7 0 11.7 2.2 13.5 6.2 1 2.3 1.4 2.7 1.4 1.3 0 -1.1 -0.6 -2.9 -1.4 -3.9 -0.9 -1.1 -1.5 -4.1 -1.5 -6.8 l0 -4.8 3.8 0 c2.1 0 4.3 0.5 5 1.2 0.9 0.9 1.2 0.9 1.2 0 0 -0.7 1.3 -1.2 2.9 -1.2 1.7 0 4.3 -1.1 6.2 -2.7 7.9 -6.7 7.8 -17.7 -0.3 -27 -2.3 -2.7 -5 -6.7 -6 -9.1 -1.8 -4 -1.8 -4.5 -0.4 -6.8 1.2 -1.8 2.5 -2.4 5.1 -2.4 3.6 0 5.7 1.5 2.4 1.7 -2.5 0.2 -4.9 2.1 -4.9 3.9 0 0.7 1.8 3.2 4.1 5.6 2.2 2.3 3.6 4.4 3.1 4.6 -0.6 0.2 0.5 2.8 2.3 5.8 1.9 3.2 3.6 7.6 4 10.5 0.7 4.9 0.8 5 2.6 3.3 1.9 -1.7 1.9 -1.6 1.3 1.7 -1 5.2 -3.1 8.7 -8.1 13.6 -4.3 4.2 -4.5 4.5 -2.7 5.8 1.1 0.8 2.6 1.2 3.4 0.9 0.8 -0.3 3.1 -0.8 5 -1.1 1.9 -0.4 3.7 -0.9 4 -1.2 0.3 -0.3 2.2 -1.9 4.3 -3.4 2 -1.5 4.6 -4.5 5.8 -6.5 1.9 -3.6 2 -3.6 1.4 -0.7 -1.5 7.9 -12.1 16.5 -20.2 16.5 -1.8 0 -3.3 0.4 -3.3 0.9 0 0.5 2.8 2.3 6.3 4 3.8 1.9 7 4.3 8.4 6.3 2.4 3.8 4 9.8 2.5 9.8 -0.6 0 -1.3 -1.3 -1.7 -3 -1.2 -5.4 -8.8 -10.7 -15.7 -10.9 -2.2 -0.1 -2.8 0.4 -2.8 2 0 2.1 -0.3 2.2 -6.6 1.6 -7.4 -0.7 -9.4 0.3 -9.4 4.8 0 1.4 -1.1 4.8 -2.5 7.5 -1.4 2.7 -2.5 6.3 -2.5 8 0 3.6 3.8 8 7 8 3.2 0 7.8 -2.7 8.5 -5 0.3 -1.1 1.1 -2 1.6 -2 1.5 0 1 3.3 -1.1 6.7 -3.6 6 -13.1 6.1 -18.3 0.3 -2.4 -2.7 -3 -5.9 -0.8 -4.5 0.5 0.2 1.1 -1.9 1.4 -4.8 0.4 -2.8 1.3 -8 2.1 -11.5 l1.4 -6.4 -3.8 -3.9 c-3.2 -3.3 -4.4 -3.9 -8.1 -3.9 -3.6 0 -4.7 0.5 -7.6 3.6 -3.8 4.2 -4.3 8.4 -1.8 15.4 0.8 2.3 1.5 5.6 1.5 7.3 0 1.6 0.7 3.5 1.6 4.2 1.5 1 1.4 1.5 -1.2 4.4 -3.3 3.6 -8.3 5.2 -13 3.9z"/>
  <path d="M17.6 111.9 c-2.8 -2.2 -5.1 -5.7 -4.3 -6.6 0.3 -0.3 1.3 0.9 2.1 2.6 0.9 1.7 2.9 3.7 4.4 4.5 1.5 0.9 2.2 1.5 1.6 1.6 -0.6 0 -2.3 -0.9 -3.8 -2.1z"/>
  <path d="M108.2 112.4 c1.5 -0.8 3.5 -2.8 4.4 -4.5 0.8 -1.7 1.8 -2.9 2.1 -2.6 1.4 1.4 -5.5 8.8 -8.1 8.7 -0.6 -0.1 0.1 -0.7 1.6 -1.6z"/>
  <path d="M47 46.5 c0 -4.3 0.1 -4.5 2.9 -4.5 4.8 0 6.1 0.9 6.1 4.5 0 3.6 -1.3 4.5 -6.1 4.5 -2.8 0 -2.9 -0.2 -2.9 -4.5z"/>
  <path d="M70 46.5 c0 -4.5 0 -4.5 3.5 -4.5 3.5 0 3.5 0 3.5 4.5 0 4.5 0 4.5 -3.5 4.5 -3.5 0 -3.5 0 -3.5 -4.5z"/>
 </g>
 <g fill="#fd4544">
  <path d="M51.6 103.1 c-2.9 -5.5 -3.4 -10.1 -1.2 -10.1 1.3 0 5.3 13.6 4.3 14.7 -0.3 0.3 -1.7 -1.8 -3.1 -4.6z"/>
  <path d="M73 107 c0 -3.2 3.5 -13 4.7 -13 2 0 1.6 3.6 -1.2 9 -2.5 4.9 -3.5 6 -3.5 4z"/>
  <path d="M49 89 c0 -0.5 -0.7 -1 -1.5 -1 -0.8 0 -1.5 -0.8 -1.5 -1.9 0 -1.4 -0.6 -1.8 -2.7 -1.5 -4.4 0.5 -15.5 2.6 -18.5 3.5 -2.4 0.7 -2.8 0.5 -2.8 -1 0 -1.5 1.9 -2.3 10.8 -4.5 8.9 -2.1 11.2 -3.1 13.5 -5.6 2.4 -2.7 3.7 -7 2.1 -7 -0.4 0 -2.4 1.6 -4.5 3.5 -4.6 4.2 -5.9 4.4 -5.9 1 0 -2 0.5 -2.5 2.5 -2.5 2.4 0 2.5 -0.2 1.9 -3.9 -0.5 -3.3 -0.3 -4 1.3 -4.5 1.1 -0.3 3.2 -2 4.8 -3.6 l2.9 -3 -2.2 -1.6 c-3 -2.1 -2.9 -5.4 0.1 -5.4 2.9 0 4.7 -1.8 4.7 -4.7 0 -2.2 0.2 -2.3 10.1 -2.3 9.7 0 10 0.1 9.4 2.1 -0.8 2.5 1.8 4.8 5.7 4.9 2.1 0 2.5 0.4 2.1 2 -0.3 1.1 -1.5 2.7 -2.6 3.5 -2.1 1.5 -2.1 1.5 0.8 4.5 1.6 1.6 3.7 3.2 4.7 3.6 1.5 0.4 1.7 1.2 1.2 4 -0.6 3 -0.4 3.4 1.6 3.4 1.3 0 2.4 0.8 2.7 1.9 0.5 1.9 5.5 3.1 13.4 3.1 5.1 0 5.4 2.6 0.4 3.6 -6.7 1.2 -15.6 -1.8 -20.4 -7 -1.4 -1.4 -2.8 -2.6 -3.3 -2.6 -1.8 0 -0.6 4.1 2 7 2.2 2.5 4.5 3.5 13.5 5.6 8.8 2.2 10.7 3 10.7 4.5 0 1.5 -0.4 1.7 -2.7 0.9 -3.5 -1.1 -12.3 -2.4 -14.4 -2.1 -0.9 0.1 -2.8 -0.3 -4.2 -0.8 -2.4 -0.9 -2.7 -0.8 -2.7 0.9 0 1.1 -0.7 2 -1.5 2 -0.8 0 -1.5 0.5 -1.5 1 0 0.6 -0.6 1 -1.3 1 -0.8 0 -1.9 -1.8 -2.6 -4 -1.5 -5.1 -5.1 -7.5 -11.1 -7.5 -6 0 -9.6 2.4 -11.1 7.5 -0.7 2.2 -1.8 4 -2.6 4 -0.7 0 -1.3 -0.4 -1.3 -1z"/>
  <path d="M22.8 79.3 c-1 -0.2 -1.8 -1.1 -1.8 -1.9 0 -2 13.5 -2 14.3 0 0.8 2.1 -7.2 3.3 -12.5 1.9z"/>
  <path d="M15.3 75.5 l-2.8 -2.5 3.5 0.2 c2.8 0.2 3.6 0.8 3.8 2.6 0.4 2.9 -1 2.8 -4.5 -0.3z"/>
  <path d="M112 74 c0 -1.8 2.6 -4 4.9 -4 1.5 0 -0.6 3.3 -3 4.9 -1.6 0.9 -1.9 0.8 -1.9 -0.9z"/>
  <path d="M98 64.4 c0 -4.5 2.2 -9.4 4.2 -9.4 1 0 1.8 0.7 1.8 1.5 0 2.4 -2.5 7.9 -4.3 9.4 -1.5 1.2 -1.7 1 -1.7 -1.5z"/>
  <path d="M25.6 61.6 c-2.1 -4.5 -2 -6.6 0.3 -6.6 2 0 3.1 2.5 3.1 7.3 0 3.7 -1.4 3.4 -3.4 -0.7z"/>
  <path d="M24 49.3 c0 -2.4 4 -10.3 5.2 -10.3 0.5 0 0.8 0.6 0.6 1.3 -0.2 0.6 -1 3.3 -1.7 6 -1.3 4.5 -4.1 6.6 -4.1 3z"/>
  <path d="M99.9 46.3 c-0.7 -2.7 -1.5 -5.4 -1.7 -6 -0.2 -0.7 0.1 -1.3 0.6 -1.3 1.2 0 5.2 7.9 5.2 10.3 0 3.6 -2.8 1.5 -4.1 -3z"/>
  <path d="M36.2 30.6 c1.3 -2 2.7 -3.6 3.1 -3.6 1.3 0 -2.6 6.3 -4.1 6.8 -0.8 0.2 -0.4 -1.1 1 -3.2z"/>
 </g>
 <g fill="#ee3b3b">
  <path d="M38 115.9 c-1.8 -3.3 -0.7 -4.1 1.2 -0.9 0.9 1.7 1.3 3 0.8 3 -0.5 0 -1.4 -0.9 -2 -2.1z"/>
  <path d="M54 110.1 c0 -1 -1.6 -5.3 -3.6 -9.5 -2.4 -4.9 -3.7 -9.3 -3.8 -12.1 -0.1 -3.6 -0.4 -4.4 -1.6 -3.9 -0.8 0.3 -5.5 1 -10.5 1.6 -6 0.7 -10.4 1.8 -13.2 3.3 -4 2.2 -4.3 2.2 -4.3 0.5 0 -2.5 8.7 -6.5 16 -7.4 6.2 -0.8 13.5 -3.9 14.4 -6.2 0.5 -1.3 0.9 -1.3 3.5 0.1 3.4 1.7 4.2 4 2.4 7.5 -1.9 3.6 -1.6 11.6 0.7 19 2.2 7.4 2.4 9 1 9 -0.5 0 -1 -0.9 -1 -1.9z"/>
  <path d="M72 110.8 c0 -0.7 0.9 -4.2 2 -7.8 2.4 -8 2.5 -15 0.3 -19.7 -1.6 -3.4 -1.6 -3.6 0.3 -4.9 3.7 -2.6 4.3 -3.4 3.8 -5.2 -0.3 -0.9 0.4 -0.1 1.5 1.9 2.3 4.2 6.9 6.4 15.3 7.5 7.1 0.9 15.8 5 15.8 7.4 0 1.7 -0.3 1.7 -4.2 -0.5 -2.9 -1.5 -7.3 -2.6 -13.3 -3.3 -4.9 -0.6 -9.7 -1.3 -10.5 -1.6 -1.2 -0.5 -1.5 0.3 -1.6 3.9 -0.1 2.8 -1.4 7.2 -3.8 12.1 -2 4.2 -3.6 8.5 -3.6 9.5 0 1 -0.4 1.9 -1 1.9 -0.5 0 -1 -0.6 -1 -1.2z"/>
  <path d="M14 107.9 c-0.6 -1.1 -1 -2.8 -0.8 -3.7 0.2 -1 0.8 -0.1 1.5 2.1 1.2 4.1 1 4.8 -0.7 1.6z"/>
  <path d="M113.2 107 c1.4 -4.3 1.8 -4.9 1.8 -2.4 0 1.1 -0.7 2.9 -1.5 4 -1.3 1.7 -1.4 1.6 -0.3 -1.6z"/>
  <path d="M22 78.7 c-4.8 -1.6 -9.4 -4.5 -10.8 -6.8 -1.7 -2.7 1.1 -2.6 3.8 0.1 1.1 1.1 3.1 2 4.5 2 1.4 0 2.5 0.5 2.5 1 0 1.6 7.7 1.2 9.4 -0.5 0.8 -0.8 2.1 -1.5 2.8 -1.5 0.7 -0.1 2.4 -0.7 3.8 -1.5 l2.5 -1.4 -3.6 -0.1 c-6.1 0 -12.5 -6.5 -9.5 -9.5 1.3 -1.3 1.8 -1.1 4.4 1.5 3.2 3.1 7.6 3.9 11.2 2 1.5 -0.8 1.9 -0.5 2.6 1.8 1.2 4.2 1.1 4.6 -0.5 6.6 -4.8 5.6 -16.2 8.7 -23.1 6.3z"/>
  <path d="M93 78.5 c-2.5 -0.8 -6.4 -3.2 -8.7 -5.2 -4.1 -3.8 -4.1 -3.8 -2.7 -7.1 1.2 -2.8 1.7 -3.1 3.3 -2.2 3.2 1.7 7.8 1.1 10.8 -1.3 2.7 -2.3 6.3 -2.6 6.3 -0.5 0 0.5 -1.5 2.5 -3.4 4.4 -2.5 2.5 -4.3 3.4 -6.7 3.4 -3.2 0.1 -3.3 0.1 -1.5 1.5 1.1 0.8 2.6 1.5 3.4 1.5 0.7 0 2 0.7 2.8 1.5 1.8 1.7 9.1 2 9.6 0.4 0.2 -0.5 2.4 -1.3 4.8 -1.6 l4.5 -0.6 -1.9 2.2 c-2 2.2 -10.3 5.2 -14 5 -1.2 0 -4.1 -0.7 -6.6 -1.4z"/>
  <path d="M59 65.6 c0 -2 0.5 -3.6 1 -3.6 0.6 0 1 1.3 1 2.9 0 1.7 -0.4 3.3 -1 3.6 -0.6 0.4 -1 -0.8 -1 -2.9z"/>
  <path d="M63.1 61.5 c0 -4.1 0.4 -7.7 1 -8 0.5 -0.4 0.9 2.6 0.9 7.4 0 4.5 -0.4 8.1 -0.9 8.1 -0.6 0 -1 -3.4 -1 -7.5z"/>
  <path d="M67.7 67.3 c-1.1 -1 -0.8 -11.1 0.3 -11.8 0.6 -0.4 1 1.8 1 5.9 0 6.6 -0.1 7.2 -1.3 5.9z"/>
  <path d="M59 58 c0 -1.6 0.5 -3 1 -3 0.6 0 1 1.4 1 3 0 1.7 -0.4 3 -1 3 -0.5 0 -1 -1.3 -1 -3z"/>
  <path d="M46.4 50.4 c-0.3 -1.8 -0.3 -4.1 0 -5 0.4 -1 -0.1 -3.9 -1 -6.6 -2 -6.1 -1.2 -7.2 6.4 -9.4 9.5 -2.8 29.1 -0.5 31.7 3.6 0.4 0.6 -0.1 3.2 -1 5.9 -0.8 2.6 -1.3 5.5 -0.9 6.5 0.3 0.9 0.3 3.1 0 4.9 -0.6 3 -1 3.4 -3.9 3.4 -3.8 0 -6.7 -2.2 -6.7 -5.2 0 -2 -0.5 -2.2 -7 -2.2 -6.5 0 -7 0.2 -7 2.2 0 3 -2.8 5.2 -6.7 5.3 -2.9 0.1 -3.3 -0.3 -3.9 -3.4z m6.3 -3.9 c-0.4 -0.8 -1.1 -1.5 -1.7 -1.5 -1.4 0 -1.3 2.7 0.3 3.3 1.6 0.6 2.1 0.1 1.4 -1.8z m22.7 0.1 c-0.3 -0.9 -1 -1.6 -1.5 -1.6 -1.4 0 -1.1 2.8 0.4 3.3 1.6 0.6 1.9 0.3 1.1 -1.7z"/>
  <path d="M24 50.8 c0 -3 1.3 -5.8 2.7 -5.8 1.1 0 1.4 0.6 0.9 2.3 -0.3 1.2 -0.6 2.8 -0.6 3.5 0 0.6 -0.7 1.2 -1.5 1.2 -0.8 0 -1.5 -0.6 -1.5 -1.2z"/>
  <path d="M101 50.8 c0 -0.7 -0.3 -2.3 -0.6 -3.5 -0.5 -1.7 -0.2 -2.3 0.9 -2.3 0.8 0 1.7 1 2.1 2.3 0.9 3.5 0.7 4.7 -0.9 4.7 -0.8 0 -1.5 -0.6 -1.5 -1.2z"/>
  <path d="M27 42.1 c0 -0.6 1.1 -2.3 2.5 -3.8 2.7 -3.1 3.4 -1.6 0.9 2.2 -1.6 2.5 -3.4 3.3 -3.4 1.6z"/>
  <path d="M97.6 40.5 c-2.5 -3.8 -1.8 -5.3 0.9 -2.2 1.4 1.5 2.5 3.2 2.5 3.8 0 1.7 -1.8 0.9 -3.4 -1.6z"/>
  <path d="M91.1 32.7 c-0.6 -0.8 -1.7 -2.9 -2.5 -4.8 -2 -4.7 -0.3 -8.3 3.9 -8.7 l3 -0.2 -3.2 1.4 c-4.1 1.9 -4.3 4.7 -0.8 9.9 2.4 3.4 2.1 5.3 -0.4 2.4z"/>
  <path d="M37 29.8 c3 -4.9 2.6 -7.6 -1.2 -9.3 -3.2 -1.4 -3.2 -1.4 -0.7 -1.5 2.7 0 4.1 1.1 5.2 4.1 0.6 1.9 -2.8 9.9 -4.2 9.9 -0.6 0 -0.2 -1.5 0.9 -3.2z"/>
 </g>
 <g fill="#de3130">
  <path d="M40.6 118.8 c-1.3 -1.3 -2.7 -3.4 -3.1 -4.8 l-0.6 -2.5 1.4 2.4 c3.1 5.3 9.4 6.5 13.2 2.6 3.4 -3.3 3.2 -6.9 -1 -15.6 -3.1 -6.5 -4.8 -12.4 -2.7 -9.3 0.4 0.6 1.5 1.3 2.5 1.7 0.9 0.3 1.7 1.4 1.7 2.3 0 0.9 0.9 4.7 2.1 8.5 2.4 7.8 2 10.9 -1.6 14.5 -3.2 3.2 -8.5 3.2 -11.9 0.2z"/>
  <path d="M75.5 118.6 c-3.6 -3.6 -4 -6.7 -1.6 -14.5 1.2 -3.8 2.1 -7.5 2.1 -8.3 0 -0.7 1.2 -2.1 2.5 -3.1 3.5 -2.5 3.2 -0.7 -1 8.2 -4.2 8.7 -4.4 12.3 -1 15.6 3.8 3.9 10.2 2.6 13.1 -2.6 1.1 -2 1.3 -2.1 1.4 -0.6 0 1 -1.3 3.2 -2.9 4.8 -3.8 3.8 -9.1 4 -12.6 0.5z"/>
  <path d="M12.6 103 c-0.9 -4.5 1.2 -11.3 3.7 -11.8 1.8 -0.4 1.8 -0.3 0 2.4 -1 1.5 -2 5.1 -2.4 7.8 l-0.5 5.1 -0.8 -3.5z"/>
  <path d="M114.1 102 c-0.1 -2.6 -1 -5.9 -2.1 -7.8 -1.9 -3.1 -1.9 -3.3 -0.3 -3 2.6 0.5 4.8 8.1 3.5 12.1 l-1 3.2 -0.1 -4.5z"/>
  <path d="M21.2 87.3 c0.4 -2.2 7.4 -4.4 12.8 -4.1 6.4 0.4 5.5 2.2 -1.5 3 -3.3 0.5 -7.3 1.2 -8.8 1.8 -2.4 0.8 -2.8 0.7 -2.5 -0.7z"/>
  <path d="M102 87.4 c-2.5 -0.7 -6.1 -1.3 -8.1 -1.3 -4 -0.1 -5 -0.7 -4.3 -2.5 0.3 -0.9 2.1 -1 6.2 -0.5 7.2 0.9 11.2 2.4 11.2 4.4 0 0.8 -0.1 1.4 -0.2 1.4 -0.2 -0.1 -2.3 -0.7 -4.8 -1.5z"/>
  <path d="M24.5 79 c-4.5 -0.7 -9.5 -3 -11.4 -5.4 -1.8 -2.1 0.1 -2.1 6 0 2.4 0.8 6.4 1.4 9 1.3 5.1 -0.3 7.1 0.5 6.3 2.5 -0.7 1.7 -4.6 2.3 -9.9 1.6z"/>
  <path d="M96.8 79.2 c-2.8 -0.3 -4.4 -2.7 -2.6 -3.8 0.7 -0.4 3.3 -0.7 5.8 -0.5 2.5 0.1 5.8 -0.2 7.3 -0.8 2.4 -0.9 2.7 -0.8 2.7 0.9 0 1 -0.5 2.2 -1.2 2.6 -1.7 1.1 -8.7 2 -12 1.6z"/>
  <path d="M115 71.7 c0 -0.8 0.7 -2 1.6 -2.8 0.8 -0.7 2.4 -2.9 3.5 -4.8 1.4 -2.6 1.8 -2.9 1.3 -1.1 -0.9 3.6 -3 7.4 -4.8 8.9 -1.3 1.1 -1.6 1.1 -1.6 -0.2z"/>
  <path d="M63.4 65.4 c-0.3 -1.9 -0.2 -5.4 0.4 -7.7 0.9 -4 1 -3.9 1.1 3.6 0.1 8.3 -0.4 9.8 -1.5 4.1z"/>
  <path d="M59.1 61.5 c0 -4.8 0.3 -6.4 0.9 -5 0.5 1.1 0.9 3.4 0.9 5 0 1.7 -0.4 3.9 -0.9 5 -0.6 1.4 -0.9 -0.2 -0.9 -5z"/>
  <path d="M67.5 64.7 c-0.4 -1.8 -0.2 -4.9 0.3 -6.8 0.9 -3.1 1 -2.8 1.1 3.4 0.1 7.3 -0.5 8.6 -1.4 3.4z"/>
  <path d="M96.6 65.2 c-0.4 -1.2 0.1 -3.4 1.3 -5.3 4.5 -7.8 3.5 -15 -3.1 -22.6 -2.3 -2.7 -5 -6.7 -6 -9.1 -1.8 -4 -1.8 -4.5 -0.4 -6.8 1.2 -1.8 2.5 -2.4 5.1 -2.4 1.8 0 3.6 0.4 3.9 0.8 0.3 0.5 -0.8 0.6 -2.5 0.4 -3.7 -0.5 -5.9 1.3 -5.9 4.9 0 2.1 1.5 4.5 5.4 8.8 6.6 7.2 8.5 10.7 9.3 17 0.7 5.8 -0.9 11 -4.1 14 -2.4 2.2 -2.4 2.2 -3 0.3z"/>
  <path d="M6.7 63.8 c-0.9 -3.1 -0.2 -3.3 1.1 -0.3 0.6 1.4 0.8 2.5 0.3 2.5 -0.5 0 -1.1 -1 -1.4 -2.2z"/>
  <path d="M27.1 63.4 c-2.5 -3.2 -3.5 -8.2 -2.7 -13.6 0.9 -5.6 2.9 -9 9.2 -15.9 3.9 -4.3 5.4 -6.7 5.4 -8.8 0 -3.6 -2.2 -5.4 -5.9 -4.9 -1.7 0.2 -2.8 0.1 -2.5 -0.4 0.3 -0.4 2.1 -0.8 3.9 -0.8 2.6 0 3.9 0.6 5.1 2.4 1.4 2.3 1.4 2.8 -0.4 6.8 -1 2.4 -3.7 6.4 -6 9.1 -3.9 4.5 -6.2 9.8 -6.2 14.2 0 1.1 0.9 4 2 6.4 3.4 7.4 2.2 10.7 -1.9 5.5z"/>
  <path d="M51.2 53.3 c-2.1 -0.8 -3.3 -5 -2.2 -7.8 1.2 -3.2 5.4 -3.4 7 -0.4 2.2 4 -1.1 9.5 -4.8 8.2z m1 -6.8 c0 -0.5 -0.5 -1.1 -1.1 -1.3 -0.6 -0.2 -1.1 0.4 -1.1 1.3 0 0.9 0.5 1.5 1.1 1.3 0.6 -0.2 1.1 -0.8 1.1 -1.3z"/>
  <path d="M73 52 c-3.4 -3.4 -1.8 -9 2.6 -9 3 0 4.8 3.8 3.5 7.4 -1.3 3.3 -3.8 3.9 -6.1 1.6z m2 -5.5 c0 -0.8 -0.4 -1.5 -1 -1.5 -0.5 0 -1 0.7 -1 1.5 0 0.8 0.5 1.5 1 1.5 0.6 0 1 -0.7 1 -1.5z"/>
  <path d="M44.6 36.2 c-1 -0.9 -0.7 -12.9 0.4 -15.6 1.2 -3.4 6.1 -4.6 18.3 -4.6 12.5 0 18.5 1.4 19.8 4.7 1 2.7 1.3 14.6 0.3 15.6 -0.3 0.3 -2.7 -0.5 -5.3 -1.9 -5.4 -2.7 -17 -4.2 -15.2 -2 1.2 1.4 0.5 2.6 -1.6 2.6 -0.7 0 -1.3 -0.9 -1.3 -2 0 -1.7 -0.5 -1.9 -2.7 -1.4 -1.6 0.3 -4.9 1.6 -7.5 2.9 -2.5 1.3 -4.9 2.1 -5.2 1.7z"/>
 </g>
 <g fill="#ae100f">
  <path d="M41.1 118.4 c-1.7 -1.4 -3.1 -3.1 -3 -3.7 0 -0.8 0.2 -0.8 0.6 0.1 0.6 1.6 5.6 4.2 8.1 4.2 3.2 0 6.4 -3.4 7.2 -7.6 l0.8 -3.9 0.1 4.2 c0.1 3.5 -0.4 4.5 -3 6.7 -1.7 1.4 -4.1 2.6 -5.4 2.6 -1.3 0 -3.7 -1.2 -5.4 -2.6z"/>
  <path d="M76.2 118.5 c-3.2 -2.7 -4.3 -6 -3.1 -9.1 0.6 -1.5 0.8 -1.2 0.8 1.4 0.1 3.8 3.9 8.2 7.1 8.2 2.6 0 7.7 -2.5 8.3 -4.2 0.4 -0.9 0.6 -0.9 0.6 -0.1 0.1 1.8 -5.8 6.3 -8.4 6.3 -1.3 0 -3.7 -1.1 -5.3 -2.5z"/>
  <path d="M110.8 110.9 c6.7 -7.7 4.1 -17.3 -6.4 -23.5 -3.2 -1.9 -0.5 -2.9 2.9 -1.1 9 4.9 11.2 18.4 4 24.8 l-2.8 2.4 2.3 -2.6z"/>
  <path d="M14.3 108.3 c-2.7 -4 -2.3 -12.2 0.7 -16.7 2.7 -3.8 8.4 -7.5 9.7 -6.2 0.4 0.5 -0.1 1.3 -1.1 2 -4.8 2.8 -8.6 7.1 -9.6 10.5 -1 3.9 -0.1 9.1 2.1 11.7 0.6 0.8 0.9 1.4 0.5 1.4 -0.3 0 -1.3 -1.2 -2.3 -2.7z"/>
  <path d="M17.5 76.4 c-3.9 -2 -7.4 -5.3 -9.1 -8.6 -2.1 -4 -1.7 -5.8 0.5 -2.2 2.1 3.4 6.3 6.7 9.9 7.8 1.3 0.4 2.2 1.5 2.2 2.7 0 2.3 0.2 2.3 -3.5 0.3z"/>
  <path d="M107 76.1 c0 -1.2 0.9 -2.3 2.3 -2.7 3.5 -1.1 7.7 -4.4 9.8 -7.8 1.1 -1.8 1.9 -2.4 1.9 -1.5 0 2.4 -5.7 9.7 -9.3 11.9 -4 2.5 -4.7 2.5 -4.7 0.1z"/>
  <path d="M59.3 62 c0 -3.6 0.2 -5 0.4 -3.2 0.2 1.7 0.2 4.7 0 6.5 -0.2 1.7 -0.4 0.3 -0.4 -3.3z"/>
  <path d="M68.3 61.5 c0 -3.3 0.2 -4.5 0.4 -2.7 0.2 1.8 0.2 4.5 0 6 -0.2 1.5 -0.4 0 -0.4 -3.3z"/>
  <path d="M49.6 51.4 c-0.9 -2.3 -0.8 -2.4 1.4 -2.4 1.5 0 2 -0.7 2 -2.5 0 -3 1.5 -3.3 3 -0.6 1 2.1 0.4 5.1 -1.4 6.3 -1.9 1.3 -4.4 0.9 -5 -0.8z"/>
  <path d="M73.4 52.2 c-2.8 -1.9 -2.1 -8.3 0.9 -8.1 0.9 0 0.9 0.2 0 0.6 -2.4 0.9 -1.3 3.3 1.8 4 2.1 0.4 2.8 1 2.5 2 -0.4 0.8 -0.6 1.7 -0.6 1.9 0 0.7 -3.4 0.4 -4.6 -0.4z"/>
  <path d="M60.7 34.4 c-0.8 -0.8 0.1 -2.4 1.4 -2.4 0.5 0 0.9 0.7 0.9 1.5 0 1.5 -1.2 2 -2.3 0.9z"/>
  <path d="M56.5 25 c-0.4 -0.7 -0.3 -1.6 0.3 -2.2 1.4 -1.4 4.5 -0.2 4 1.5 -0.6 1.6 -3.4 2.1 -4.3 0.7z"/>
  <path d="M87 24.5 c0 -0.6 0.7 -2.1 1.6 -3.3 1.1 -1.7 2.4 -2.2 5.2 -2.1 l3.7 0.2 -3.8 0.6 c-2.7 0.4 -4.3 1.4 -5.3 3.1 -0.7 1.4 -1.3 2 -1.4 1.5z"/>
  <path d="M65.3 23.3 c-0.7 -0.2 -1.3 -1.3 -1.3 -2.4 0 -2.5 -5.7 -2.6 -13.8 0 l-5.9 1.8 1 -3.4 c1.3 -4.1 6.9 -10.8 10.8 -12.8 3.6 -1.9 12.2 -1.9 15.8 0 5.5 2.8 12.7 13.2 10.7 15.3 -0.3 0.3 -2.5 0 -4.8 -0.7 -2.4 -0.7 -5.1 -1.5 -6.2 -1.8 -1.1 -0.3 -1.6 -0.1 -1.2 0.5 0.3 0.6 -0.1 1.8 -1 2.6 -1.6 1.7 -2.1 1.8 -4.1 0.9z"/>
  <path d="M38.5 21.1 c-0.6 -0.5 -2.6 -1.1 -4.5 -1.4 l-3.5 -0.4 3.6 -0.1 c2.2 -0.1 4.2 0.4 4.9 1.3 1.4 1.6 1 2.1 -0.5 0.6z"/>
 </g>
 <g fill="#9d0605">
  <path d="M43.5 120 c-1.2 -0.4 -2.7 -1.5 -3.5 -2.5 -1.2 -1.5 -1 -1.5 2.4 0.1 3 1.5 4.2 1.6 6.6 0.7 1.8 -0.7 3 -0.7 3 -0.2 0 0.5 -1.2 1.4 -2.6 1.9 -2.9 1.2 -3.2 1.2 -5.9 0z"/>
  <path d="M79.3 120.4 c-2.2 -1 -1.4 -2.1 1.1 -1.7 1.3 0.3 3.9 -0.3 5.7 -1.2 l3.4 -1.7 -2 2 c-2.1 2.2 -6.2 3.4 -8.2 2.6z"/>
  <path d="M12.5 99.1 c0.6 -4.4 2.3 -8.7 3.1 -7.8 0.3 0.3 -0.4 3.1 -1.6 6.3 -2.1 5.8 -2.1 5.8 -1.5 1.5z"/>
  <path d="M114 98.2 c-2.2 -7.4 -2.3 -7.9 -0.6 -5.9 1.4 1.8 3.2 9.4 2.4 10.2 -0.2 0.3 -1 -1.7 -1.8 -4.3z"/>
  <path d="M50.2 51.8 c-1.7 -1.7 -1.5 -6.3 0.4 -7.9 2.6 -2.1 4.9 0.1 4.9 4.7 0 3.1 -0.4 4 -2 4.2 -1.1 0.1 -2.6 -0.3 -3.3 -1z m2 -5.3 c0 -0.5 -0.5 -1.1 -1.1 -1.3 -0.6 -0.2 -1.1 0.4 -1.1 1.3 0 0.9 0.5 1.5 1.1 1.3 0.6 -0.2 1.1 -0.8 1.1 -1.3z"/>
  <path d="M72.7 52.3 c-1.3 -1.3 -0.7 -7.1 0.9 -8.4 3.4 -2.8 7.3 4.1 4.3 7.7 -1.2 1.5 -4.1 1.9 -5.2 0.7z m2.3 -5.8 c0 -0.8 -0.4 -1.5 -1 -1.5 -0.5 0 -1 0.7 -1 1.5 0 0.8 0.5 1.5 1 1.5 0.6 0 1 -0.7 1 -1.5z"/>
  <path d="M57.6 25.3 c-1.1 -1.1 -0.6 -2.3 0.9 -2.3 0.8 0 1.5 0.4 1.5 0.9 0 1.3 -1.6 2.2 -2.4 1.4z"/>
  <path d="M64.7 21.6 c-0.3 -0.8 0.1 -2 0.9 -2.7 1.2 -1 1.8 -0.9 3.1 0.3 0.8 0.9 1.2 2.1 0.9 2.7 -1 1.6 -4.3 1.4 -4.9 -0.3z"/>
  <path d="M59.7 13.4 c-1.3 -1.3 -0.7 -2.4 1.4 -2.4 1.1 0 1.9 0.5 1.7 1.2 -0.5 1.4 -2.2 2.1 -3.1 1.2z"/>
  <path d="M53 8.9 c0 -1.7 6.4 -4.1 11 -4.1 4.6 0 10.2 2.1 11.6 4.3 0.4 0.7 0.3 0.9 -0.4 0.5 -1.9 -1.2 -15.1 -1.7 -18.7 -0.7 -2 0.5 -3.5 0.6 -3.5 0z"/>
 </g>
</svg>